<?xml version="1.0" encoding="utf-8"?>
<!-- Generator: Adobe Illustrator 25.2.0, SVG Export Plug-In . SVG Version: 6.00 Build 0)  -->
<svg version="1.1" id="Layer_1" xmlns="http://www.w3.org/2000/svg" xmlns:xlink="http://www.w3.org/1999/xlink" x="0px" y="0px"
	 viewBox="0 0 192 192" style="enable-background:new 0 0 192 192;" xml:space="preserve">
<style type="text/css">
	.st0{fill:none;}
	.st1{fill:#FFFFFF;stroke:#FFFFFF;stroke-width:18;stroke-linecap:round;stroke-linejoin:round;stroke-miterlimit:3;}
	.st2{fill:#FFFFFF;}
	.st3{fill:#29546E;}
</style>
<rect y="0" class="st0" width="192" height="192"/>
<path class="st1" d="M138,138H52.4L31.4,23c-0.5-2.8-3-4.9-5.9-5H12"/>
<circle class="st1" cx="60" cy="153" r="15"/>
<circle class="st1" cx="138" cy="153" r="15"/>
<path class="st1" d="M46.9,108h94.2c5.8,0,10.8-4.1,11.8-9.8L162,48H36"/>
<circle class="st2" cx="136.3" cy="55.7" r="55.7"/>
<g>
	<g>
		<path class="st3" d="M115.2,81.1v-7.4L139,51.2c1.9-1.9,3.4-3.5,4.3-4.9c1-1.4,1.6-2.7,2-4c0.3-1.2,0.5-2.4,0.5-3.4
			c0-2.7-1-4.8-2.8-6.3c-1.9-1.5-4.7-2.3-8.4-2.3c-2.8,0-5.4,0.5-7.8,1.5s-4.4,2.5-6.1,4.6l-7.7-5.9c2.3-3.1,5.5-5.5,9.4-7.3
			c3.9-1.7,8.3-2.6,13.2-2.6c4.3,0,8,0.7,11.2,2.1c3.2,1.4,5.6,3.4,7.4,5.9c1.8,2.5,2.6,5.6,2.6,9c0,2-0.3,3.9-0.8,5.8
			c-0.5,1.9-1.5,3.9-2.9,6c-1.4,2.1-3.5,4.5-6.2,7.1l-20.4,19.2l-2.3-4.2h34.8v9.4H115.2z"/>
	</g>
</g>
</svg>
