<svg id="Layer_1" data-name="Layer 1" xmlns="http://www.w3.org/2000/svg" viewBox="0 0 317.6 130.74"><defs><style>.cls-1{fill:#fff;}</style></defs><path class="cls-1" d="M310.5,314.94l-48.35-80.36h20.2l45.32,70H315.85s16.22-26.63,32.88-41.55L355.66,276c-11.28,11.17-26.79,39-26.79,39Z" transform="translate(-262.15 -229.76)"/><path class="cls-1" d="M375.51,315.85a28.32,28.32,0,0,1-12.28-2.46,19.36,19.36,0,0,1-8-6.72,16.84,16.84,0,0,1-2.81-9.53,16.28,16.28,0,0,1,11.25-16.07q5.85-2.29,15.38-2.3h16.3v10.34H380.91q-6.32,0-8.67,2.06a6.59,6.59,0,0,0-2.35,5.17,6.44,6.44,0,0,0,2.7,5.45,11.9,11.9,0,0,0,7.29,2,16.22,16.22,0,0,0,8.2-2.07,11.24,11.24,0,0,0,5.11-6.31L396,303.8a16.33,16.33,0,0,1-7.12,8.9Q383.67,315.85,375.51,315.85Zm18.83-.91V302.88l-1.15-2.64V278.66q0-5.75-3.5-9T379,266.49a31.24,31.24,0,0,0-9.7,1.55,32.1,32.1,0,0,0-8.21,4.19l-6.74-12.79c3.37-2.45,7.85-4,12.59-5.29a56.18,56.18,0,0,1,14.47-1.89q14.11,0,21.92,6.65t7.81,20.78v35.25Z" transform="translate(-262.15 -229.76)"/><path class="cls-1" d="M418.33,314.94V229.76h17.91v85.18Z" transform="translate(-262.15 -229.76)"/><path class="cls-1" d="M469.23,315.85a30.41,30.41,0,0,1-13.78-3,21.14,21.14,0,0,1-9.3-9.18q-3.33-6.21-3.33-15.62V253.18h17.91v32.14q0,7.8,3.27,11.42t9.25,3.62a14.57,14.57,0,0,0,7.34-1.84A13,13,0,0,0,485.7,293a20,20,0,0,0,1.89-9.18V253.18h17.8v61.76h-17V297.83l3.1,5.05a21.93,21.93,0,0,1-9.19,9.7A26.78,26.78,0,0,1,469.23,315.85Z" transform="translate(-262.15 -229.76)"/><path class="cls-1" d="M547.23,316.31a39.34,39.34,0,0,1-18.48-4.13,30.45,30.45,0,0,1-12.29-11.31,30.82,30.82,0,0,1-4.36-16.36,32.16,32.16,0,0,1,4.19-16.41A29.51,29.51,0,0,1,528,256.79a35,35,0,0,1,16.93-4.07,34.12,34.12,0,0,1,16.36,3.9,29.39,29.39,0,0,1,11.54,11q4.24,7.13,4.24,17.1c0,.69,0,1.48-.11,2.36s-.16,1.7-.23,2.47H526.56V279.12h40.76l-7,3.1a16.29,16.29,0,0,0-1.83-8.38,14.25,14.25,0,0,0-5.4-5.57,15.62,15.62,0,0,0-8-2,16,16,0,0,0-8.1,2,14.07,14.07,0,0,0-5.45,5.63,17.75,17.75,0,0,0-2,8.55v2.75a17,17,0,0,0,2.29,9,15.17,15.17,0,0,0,6.32,5.79,21.34,21.34,0,0,0,9.64,2,22.73,22.73,0,0,0,8.55-1.49,20.78,20.78,0,0,0,6.83-4.48l9.53,10.34a27.78,27.78,0,0,1-10.67,7.4A39.59,39.59,0,0,1,547.23,316.31Z" transform="translate(-262.15 -229.76)"/><path class="cls-1" d="M278.33,360.5a16.05,16.05,0,0,1-5.85-1,14.08,14.08,0,0,1-4.67-2.91,13,13,0,0,1-3.08-4.4,14.52,14.52,0,0,1,0-11,13.19,13.19,0,0,1,3.08-4.38,13.9,13.9,0,0,1,4.65-2.9,16,16,0,0,1,5.83-1,16.21,16.21,0,0,1,5.84,1,14.06,14.06,0,0,1,4.65,2.88,13.21,13.21,0,0,1,3.08,4.41,14.6,14.6,0,0,1,0,11.07,13,13,0,0,1-3.08,4.42,13.92,13.92,0,0,1-4.65,2.89A16.11,16.11,0,0,1,278.33,360.5Zm0-5.25a8.49,8.49,0,0,0,3.31-.63,7.93,7.93,0,0,0,2.66-1.8,8.13,8.13,0,0,0,1.78-2.71,9.84,9.84,0,0,0,0-6.93,8.28,8.28,0,0,0-1.78-2.72,8.05,8.05,0,0,0-2.66-1.79,8.31,8.31,0,0,0-3.31-.64,8.52,8.52,0,0,0-3.33.64,7.81,7.81,0,0,0-2.65,1.79,8.58,8.58,0,0,0-1.77,2.72,9.84,9.84,0,0,0,0,6.93,8.42,8.42,0,0,0,1.77,2.71,7.69,7.69,0,0,0,2.65,1.8A8.7,8.7,0,0,0,278.29,355.25Z" transform="translate(-262.15 -229.76)"/><path class="cls-1" d="M294.75,344.5v-4.59H309v4.59ZM297.92,360V339A7.55,7.55,0,0,1,300,333.4a8,8,0,0,1,5.89-2.06,11.58,11.58,0,0,1,2.49.27,6.17,6.17,0,0,1,2.07.8l-1.57,4.36a4.05,4.05,0,0,0-1.11-.53,4.26,4.26,0,0,0-1.3-.2,2.69,2.69,0,0,0-2,.73,3.17,3.17,0,0,0-.71,2.3V341l.19,2.53V360Z" transform="translate(-262.15 -229.76)"/><path class="cls-1" d="M309.56,344.5v-4.59h14.27v4.59ZM312.73,360V339a7.55,7.55,0,0,1,2.07-5.59,8,8,0,0,1,5.89-2.06,11.58,11.58,0,0,1,2.49.27,6.11,6.11,0,0,1,2.06.8l-1.57,4.36a3.8,3.8,0,0,0-1.11-.53,4.21,4.21,0,0,0-1.3-.2,2.68,2.68,0,0,0-2,.73,3.17,3.17,0,0,0-.71,2.3V341l.19,2.53V360Zm17.45-23.46a3.85,3.85,0,0,1-2.72-1,3.24,3.24,0,0,1,0-4.74,3.85,3.85,0,0,1,2.72-1,4,4,0,0,1,2.7.9,2.91,2.91,0,0,1,1.05,2.32,3.23,3.23,0,0,1-1,2.46A3.81,3.81,0,0,1,330.18,336.58Zm-3,23.46V339.45h6V360Z" transform="translate(-262.15 -229.76)"/><path class="cls-1" d="M348.62,360.34a12.44,12.44,0,0,1-5.91-1.36,10.11,10.11,0,0,1-5.53-9.24,10.18,10.18,0,0,1,1.47-5.47,10.57,10.57,0,0,1,4.06-3.75,12.34,12.34,0,0,1,5.91-1.38,11.54,11.54,0,0,1,5.69,1.36,7.93,7.93,0,0,1,3.5,3.85l-4.6,2.52a5.52,5.52,0,0,0-2-2.12,5.17,5.17,0,0,0-2.6-.67,5.51,5.51,0,0,0-2.72.67,5,5,0,0,0-1.95,1.93,6,6,0,0,0-.73,3.06,6.08,6.08,0,0,0,.73,3.08,4.9,4.9,0,0,0,1.95,2,5.62,5.62,0,0,0,2.72.67,5.27,5.27,0,0,0,2.6-.67,5.48,5.48,0,0,0,2-2.17l4.6,2.53a8.06,8.06,0,0,1-3.5,3.83A11.44,11.44,0,0,1,348.62,360.34Z" transform="translate(-262.15 -229.76)"/><path class="cls-1" d="M371.24,360.34a13.23,13.23,0,0,1-6.16-1.37,10,10,0,0,1-5.55-9.23,10.72,10.72,0,0,1,1.39-5.47,9.92,9.92,0,0,1,3.91-3.77,11.7,11.7,0,0,1,5.64-1.36,11.5,11.5,0,0,1,5.46,1.3,9.84,9.84,0,0,1,3.84,3.68,11,11,0,0,1,1.42,5.7c0,.23,0,.49,0,.78s0,.57-.08.83H364.35v-3.49h13.58l-2.33,1a5.59,5.59,0,0,0-.61-2.8,4.85,4.85,0,0,0-1.8-1.85,5.2,5.2,0,0,0-2.68-.67,5.3,5.3,0,0,0-2.7.67A4.74,4.74,0,0,0,366,346.2a6,6,0,0,0-.64,2.85V350a5.66,5.66,0,0,0,.76,3,5.08,5.08,0,0,0,2.1,1.93,7.12,7.12,0,0,0,3.22.67,7.67,7.67,0,0,0,2.85-.5,7.07,7.07,0,0,0,2.28-1.49l3.17,3.44a9.09,9.09,0,0,1-3.56,2.47A13,13,0,0,1,371.24,360.34Z" transform="translate(-262.15 -229.76)"/><path class="cls-1" d="M402.65,360h-6.23V333.25h20.24v5h-14Zm-.5-14.74H415v5H402.15Z" transform="translate(-262.15 -229.76)"/><path class="cls-1" d="M428.6,360.34a10.21,10.21,0,0,1-4.6-1,7.1,7.1,0,0,1-3.1-3.06,10.93,10.93,0,0,1-1.1-5.21V339.45h6v10.71a5.54,5.54,0,0,0,1.09,3.81,3.9,3.9,0,0,0,3.07,1.21,4.82,4.82,0,0,0,2.45-.62,4.28,4.28,0,0,0,1.71-1.83,6.67,6.67,0,0,0,.63-3.06V339.45h5.93V360H435v-5.71l1,1.69a7.26,7.26,0,0,1-3.06,3.23A8.9,8.9,0,0,1,428.6,360.34Z" transform="translate(-262.15 -229.76)"/><path class="cls-1" d="M446.2,360V339.45h5.7v5.85l-.8-1.72a6.65,6.65,0,0,1,2.94-3.31,10.08,10.08,0,0,1,4.94-1.13v5.55a5.5,5.5,0,0,0-.67-.11,4.64,4.64,0,0,0-.63,0,5.58,5.58,0,0,0-4,1.42,5.75,5.75,0,0,0-1.49,4.36V360Z" transform="translate(-262.15 -229.76)"/><path class="cls-1" d="M475.05,339.14a9.6,9.6,0,0,1,4.38,1,7.1,7.1,0,0,1,3,3,10.59,10.59,0,0,1,1.11,5.15V360h-6V349.17a5.26,5.26,0,0,0-1.09-3.67,4,4,0,0,0-3.08-1.19,5.21,5.21,0,0,0-2.54.61,4.3,4.3,0,0,0-1.76,1.8,6.71,6.71,0,0,0-.63,3.14V360h-6V339.45h5.7v5.7l-1.07-1.72a7.65,7.65,0,0,1,3.17-3.18A9.81,9.81,0,0,1,475.05,339.14Z" transform="translate(-262.15 -229.76)"/><path class="cls-1" d="M492,336.58a3.82,3.82,0,0,1-2.71-1,3.22,3.22,0,0,1,0-4.74,3.82,3.82,0,0,1,2.71-1,4,4,0,0,1,2.7.9,2.91,2.91,0,0,1,1,2.32,3.23,3.23,0,0,1-1,2.46A3.8,3.8,0,0,1,492,336.58ZM489,360V339.45h6V360Z" transform="translate(-262.15 -229.76)"/><path class="cls-1" d="M498.05,344.5v-4.59h14.27v4.59Zm10.86,15.84a8.11,8.11,0,0,1-5.66-1.85,7.14,7.14,0,0,1-2-5.53V334.9h6v17.94a2.86,2.86,0,0,0,.67,2,2.34,2.34,0,0,0,1.82.73,3.92,3.92,0,0,0,2.45-.77l1.57,4.21a6.11,6.11,0,0,1-2.17,1A11.07,11.07,0,0,1,508.91,360.34Z" transform="translate(-262.15 -229.76)"/><path class="cls-1" d="M525.83,360.34a10.14,10.14,0,0,1-4.59-1,7,7,0,0,1-3.1-3.06,10.93,10.93,0,0,1-1.11-5.21V339.45h6v10.71a5.54,5.54,0,0,0,1.09,3.81,3.91,3.91,0,0,0,3.08,1.21,4.85,4.85,0,0,0,2.45-.62,4.32,4.32,0,0,0,1.7-1.83,6.67,6.67,0,0,0,.63-3.06V339.45h5.93V360h-5.66v-5.71l1,1.69a7.26,7.26,0,0,1-3.06,3.23A8.9,8.9,0,0,1,525.83,360.34Z" transform="translate(-262.15 -229.76)"/><path class="cls-1" d="M543.43,360V339.45h5.7v5.85l-.8-1.72a6.62,6.62,0,0,1,2.95-3.31,10,10,0,0,1,4.93-1.13v5.55a5.5,5.5,0,0,0-.67-.11,4.64,4.64,0,0,0-.63,0,5.59,5.59,0,0,0-4,1.42,5.75,5.75,0,0,0-1.49,4.36V360Z" transform="translate(-262.15 -229.76)"/><path class="cls-1" d="M569.8,360.34a13.23,13.23,0,0,1-6.16-1.37,10.19,10.19,0,0,1-4.1-3.77,10.32,10.32,0,0,1-1.45-5.46,10.72,10.72,0,0,1,1.39-5.47,9.85,9.85,0,0,1,3.91-3.77,11.7,11.7,0,0,1,5.64-1.36,11.43,11.43,0,0,1,5.45,1.3,9.87,9.87,0,0,1,3.85,3.68,11,11,0,0,1,1.41,5.7q0,.35,0,.78c0,.3-.06.57-.08.83H562.91v-3.49h13.58l-2.33,1a5.59,5.59,0,0,0-.61-2.8,4.85,4.85,0,0,0-1.8-1.85,5.2,5.2,0,0,0-2.68-.67,5.3,5.3,0,0,0-2.7.67,4.74,4.74,0,0,0-1.82,1.87,6,6,0,0,0-.65,2.85V350a5.66,5.66,0,0,0,.77,3,5.08,5.08,0,0,0,2.1,1.93,7.12,7.12,0,0,0,3.22.67,7.67,7.67,0,0,0,2.85-.5,6.93,6.93,0,0,0,2.27-1.49l3.18,3.44a9.09,9.09,0,0,1-3.56,2.47A13,13,0,0,1,569.8,360.34Z" transform="translate(-262.15 -229.76)"/></svg>